<?xml version="1.0" standalone="no"?>
<!DOCTYPE svg PUBLIC "-//W3C//DTD SVG 1.1//EN" "http://www.w3.org/Graphics/SVG/1.1/DTD/svg11.dtd" >
<svg xmlns="http://www.w3.org/2000/svg" xmlns:xlink="http://www.w3.org/1999/xlink" version="1.1">
<metadata>
Created by FontForge 20161013 at Wed Jan 14 10:07:57 2015
 By ,,,
(c) 2014 Apple Inc. All rights reserved.
</metadata>
<defs>
<font id="SanFranciscoDisplay-Medium" horiz-adv-x="1218" >
  <font-face 
    font-family="San Francisco Display Med"
    font-weight="500"
    font-stretch="normal"
    units-per-em="2048"
    panose-1="0 0 0 0 0 0 0 0 0 0"
    ascent="1638"
    descent="-410"
    bbox="21 -383 1498 1994"
    underline-thickness="50"
    underline-position="-175"
    unicode-range="U+0020-20AB"
  />
<missing-glyph horiz-adv-x="1293" 
d="M120 0v1365h1053v-1365h-1053zM501 313q0 -47 33.5 -77t86.5 -30q55 0 88.5 29.5t33.5 77.5q0 49 -33.5 78.5t-88.5 29.5q-54 0 -87 -30t-33 -78zM339 888h169q1 59 34.5 94.5t90.5 35.5q54 0 87 -30t33 -80q0 -38 -20.5 -65.5t-82.5 -72.5q-69 -48 -96 -100t-22 -121
l1 -18h166v15q0 48 19 76t88 77q73 52 103 102t30 116q0 113 -81 181.5t-215 68.5q-143 0 -225.5 -76t-78.5 -203z" />
    <glyph glyph-name=".notdef" horiz-adv-x="1293" 
d="M120 0v1365h1053v-1365h-1053zM501 313q0 -47 33.5 -77t86.5 -30q55 0 88.5 29.5t33.5 77.5q0 49 -33.5 78.5t-88.5 29.5q-54 0 -87 -30t-33 -78zM339 888h169q1 59 34.5 94.5t90.5 35.5q54 0 87 -30t33 -80q0 -38 -20.5 -65.5t-82.5 -72.5q-69 -48 -96 -100t-22 -121
l1 -18h166v15q0 48 19 76t88 77q73 52 103 102t30 116q0 113 -81 181.5t-215 68.5q-143 0 -225.5 -76t-78.5 -203z" />
    <glyph glyph-name=".null" horiz-adv-x="0" 
 />
    <glyph glyph-name="nonmarkingreturn" horiz-adv-x="682" 
 />
    <glyph glyph-name="CR" horiz-adv-x="0" 
 />
    <glyph glyph-name="space" unicode=" " horiz-adv-x="408" 
 />
    <glyph glyph-name="Abreve" unicode="&#x102;" 
d="M230 0h-209l476 1365h223l476 -1365h-221l-127 391h-490zM607 1141h-7l-193 -590h392zM287 1756h132q0 -60 52 -101t138 -41t138 41t52 101h132q0 -52 -18.5 -98.5t-56 -85t-101 -61t-146.5 -22.5t-146.5 22.5t-101 61t-56 85t-18.5 98.5z" />
    <glyph glyph-name="abreve" unicode="&#x103;" horiz-adv-x="1072" 
d="M733 138q-41 -68 -116.5 -111.5t-184.5 -43.5q-154 0 -249 87t-95 232q0 142 96.5 225.5t274.5 83.5h271v118q0 175 -204 175q-189 0 -205 -158h-194q7 148 107.5 236.5t299.5 88.5q188 0 293 -84t105 -260v-727h-192v138h-7zM491 143q102 0 170.5 61.5t68.5 152.5v111
h-243q-97 0 -146 -42t-49 -114q0 -82 57.5 -125.5t141.5 -43.5zM234 1446h132q0 -69 42 -116.5t124 -47.5t124 47.5t42 116.5h131q0 -52 -18 -101t-53 -90.5t-93.5 -67t-132.5 -25.5t-133.5 25.5t-94 67t-52.5 90.5t-18 101z" />
    <glyph glyph-name="Adotbelow" unicode="&#x1ea0;" 
d="M230 0h-209l476 1365h223l476 -1365h-221l-127 391h-490zM607 1141h-7l-193 -590h392zM499 -271q0 49 32.5 82t79.5 33q50 0 83 -33t33 -82q0 -48 -33 -80t-83 -32q-47 0 -79.5 32t-32.5 80z" />
    <glyph glyph-name="adotbelow" unicode="&#x1ea1;" horiz-adv-x="1072" 
d="M733 138q-41 -68 -116.5 -111.5t-184.5 -43.5q-154 0 -249 87t-95 232q0 142 96.5 225.5t274.5 83.5h271v118q0 175 -204 175q-189 0 -205 -158h-194q7 148 107.5 236.5t299.5 88.5q188 0 293 -84t105 -260v-727h-192v138h-7zM491 143q102 0 170.5 61.5t68.5 152.5v111
h-243q-97 0 -146 -42t-49 -114q0 -82 57.5 -125.5t141.5 -43.5zM425 -271q0 49 32.5 82t79.5 33q50 0 83 -33t33 -82q0 -48 -33 -80t-83 -32q-47 0 -79.5 32t-32.5 80z" />
    <glyph glyph-name="Ahookabove" unicode="&#x1ea2;" 
d="M230 0h-209l476 1365h223l476 -1365h-221l-127 391h-490zM607 1141h-7l-193 -590h392zM476 1659v99q42 15 103 15q90 0 147 -40.5t57 -113.5q0 -108 -145 -164l-69 84q35 9 61.5 28t26.5 44q0 59 -90 59q-53 0 -91 -11z" />
    <glyph glyph-name="ahookabove" unicode="&#x1ea3;" horiz-adv-x="1072" 
d="M733 138q-41 -68 -116.5 -111.5t-184.5 -43.5q-154 0 -249 87t-95 232q0 142 96.5 225.5t274.5 83.5h271v118q0 175 -204 175q-189 0 -205 -158h-194q7 148 107.5 236.5t299.5 88.5q188 0 293 -84t105 -260v-727h-192v138h-7zM491 143q102 0 170.5 61.5t68.5 152.5v111
h-243q-97 0 -146 -42t-49 -114q0 -82 57.5 -125.5t141.5 -43.5zM401 1437v110q43 18 111 18q102 0 161.5 -49.5t59.5 -136.5q0 -73 -42 -119.5t-120 -88.5l-68 90q54 30 76 55t22 55q0 37 -29 59.5t-74 22.5q-55 0 -97 -16z" />
    <glyph glyph-name="Acircumflexacute" unicode="&#x1ea4;" 
d="M230 0h-209l476 1365h223l476 -1365h-221l-127 391h-490zM607 1141h-7l-193 -590h392zM275 1517l274 237h120l276 -237h-176l-156 139h-8l-153 -139h-177zM811 1699l184 212h186l-255 -231z" />
    <glyph glyph-name="acircumflexacute" unicode="&#x1ea5;" horiz-adv-x="1072" 
d="M733 138q-41 -68 -116.5 -111.5t-184.5 -43.5q-154 0 -249 87t-95 232q0 142 96.5 225.5t274.5 83.5h271v118q0 175 -204 175q-189 0 -205 -158h-194q7 148 107.5 236.5t299.5 88.5q188 0 293 -84t105 -260v-727h-192v138h-7zM491 143q102 0 170.5 61.5t68.5 152.5v111
h-243q-97 0 -146 -42t-49 -114q0 -82 57.5 -125.5t141.5 -43.5zM201 1206l274 237h120l276 -237h-176l-156 139h-8l-153 -139h-177zM737 1388l184 212h186l-255 -231z" />
    <glyph glyph-name="Acircumflexgrave" unicode="&#x1ea6;" 
d="M230 0h-209l476 1365h223l476 -1365h-221l-127 391h-490zM607 1141h-7l-193 -590h392zM1072 1680h-136l-262 231h184zM945 1517h-176l-156 139h-8l-153 -139h-177l274 237h120z" />
    <glyph glyph-name="acircumflexgrave" unicode="&#x1ea7;" horiz-adv-x="1072" 
d="M733 138q-41 -68 -116.5 -111.5t-184.5 -43.5q-154 0 -249 87t-95 232q0 142 96.5 225.5t274.5 83.5h271v118q0 175 -204 175q-189 0 -205 -158h-194q7 148 107.5 236.5t299.5 88.5q188 0 293 -84t105 -260v-727h-192v138h-7zM491 143q102 0 170.5 61.5t68.5 152.5v111
h-243q-97 0 -146 -42t-49 -114q0 -82 57.5 -125.5t141.5 -43.5zM998 1369h-136l-262 231h184zM871 1206h-176l-156 139h-8l-153 -139h-177l274 237h120z" />
    <glyph glyph-name="Acircumflexhookabove" unicode="&#x1ea8;" 
d="M230 0h-209l476 1365h223l476 -1365h-221l-127 391h-490zM607 1141h-7l-193 -590h392zM274 1509l274 221h120l276 -221h-176l-156 127h-8l-153 -127h-177zM748 1937q31 7 85 7q80 0 126.5 -35.5t46.5 -99.5q0 -90 -106 -150l-62 66q49 33 49 68q0 27 -22 42t-58 15
q-34 0 -59 -4v91z" />
    <glyph glyph-name="acircumflexhookabove" unicode="&#x1ea9;" horiz-adv-x="1072" 
d="M733 138q-41 -68 -116.5 -111.5t-184.5 -43.5q-154 0 -249 87t-95 232q0 142 96.5 225.5t274.5 83.5h271v118q0 175 -204 175q-189 0 -205 -158h-194q7 148 107.5 236.5t299.5 88.5q188 0 293 -84t105 -260v-727h-192v138h-7zM491 143q102 0 170.5 61.5t68.5 152.5v111
h-243q-97 0 -146 -42t-49 -114q0 -82 57.5 -125.5t141.5 -43.5zM200 1198l274 221h120l276 -221h-176l-156 127h-8l-153 -127h-177zM674 1626q32 7 85 7q80 0 126.5 -35.5t46.5 -99.5q0 -90 -106 -150l-62 66q49 33 49 68q0 27 -22 42t-58 15q-34 0 -59 -4v91z" />
    <glyph glyph-name="Acircumflextilde" unicode="&#x1eaa;" 
d="M230 0h-209l476 1365h223l476 -1365h-221l-127 391h-490zM607 1141h-7l-193 -590h392zM278 1505l274 232h119l277 -232h-177l-155 138h-9l-153 -138h-176zM436 1801h-122q0 77 46.5 135t132.5 58q45 0 78 -15.5t71 -48.5q3 -3 11 -10t11.5 -10t10.5 -8.5t11.5 -8t11 -6
t13.5 -4.5t14 -1q32 0 48.5 30t20.5 69h121q0 -81 -49.5 -138.5t-129.5 -57.5q-54 0 -85.5 14.5t-63.5 43.5q-17 16 -25.5 23.5t-25.5 16t-34 8.5q-61 0 -66 -90z" />
    <glyph glyph-name="acircumflextilde" unicode="&#x1eab;" horiz-adv-x="1072" 
d="M733 138q-41 -68 -116.5 -111.5t-184.5 -43.5q-154 0 -249 87t-95 232q0 142 96.5 225.5t274.5 83.5h271v118q0 175 -204 175q-189 0 -205 -158h-194q7 148 107.5 236.5t299.5 88.5q188 0 293 -84t105 -260v-727h-192v138h-7zM491 143q102 0 170.5 61.5t68.5 152.5v111
h-243q-97 0 -146 -42t-49 -114q0 -82 57.5 -125.5t141.5 -43.5zM204 1194l274 232h119l277 -232h-177l-155 138h-9l-153 -138h-176zM362 1490h-122q0 77 46.5 135t132.5 58q45 0 78 -15.5t71 -48.5q3 -3 11 -10t11.5 -10t10.5 -8.5t11.5 -8t11 -6t13.5 -4.5t14 -1
q32 0 48.5 30t20.5 69h121q0 -81 -49.5 -138.5t-129.5 -57.5q-54 0 -85.5 14.5t-63.5 43.5q-17 16 -25.5 23.5t-25.5 16t-34 8.5q-61 0 -66 -90z" />
    <glyph glyph-name="Acircumflexdotbelow" unicode="&#x1eac;" 
d="M230 0h-209l476 1365h223l476 -1365h-221l-127 391h-490zM607 1141h-7l-193 -590h392zM499 -271q0 49 32.5 82t79.5 33q50 0 83 -33t33 -82q0 -48 -33 -80t-83 -32q-47 0 -79.5 32t-32.5 80zM277 1507l277 238h119l274 -238h-176l-155 140h-8l-155 -140h-176z" />
    <glyph glyph-name="acircumflexdotbelow" unicode="&#x1ead;" horiz-adv-x="1072" 
d="M733 138q-41 -68 -116.5 -111.5t-184.5 -43.5q-154 0 -249 87t-95 232q0 142 96.5 225.5t274.5 83.5h271v118q0 175 -204 175q-189 0 -205 -158h-194q7 148 107.5 236.5t299.5 88.5q188 0 293 -84t105 -260v-727h-192v138h-7zM491 143q102 0 170.5 61.5t68.5 152.5v111
h-243q-97 0 -146 -42t-49 -114q0 -82 57.5 -125.5t141.5 -43.5zM255 1217l213 298h133l204 -300h-162l-108 187h-4l-116 -185h-160zM425 -271q0 49 32.5 82t79.5 33q50 0 83 -33t33 -82q0 -48 -33 -80t-83 -32q-47 0 -79.5 32t-32.5 80z" />
    <glyph glyph-name="Abreveacute" unicode="&#x1eae;" 
d="M230 0h-209l476 1365h223l476 -1365h-221l-127 391h-490zM607 1141h-7l-193 -590h392zM895 1715q0 -97 -73.5 -166.5t-212.5 -69.5q-140 0 -215.5 69t-75.5 167h128q1 -53 44 -88t119 -35q77 0 121 34.5t44 88.5h121zM507 1723l249 242h180l-270 -242h-159z" />
    <glyph glyph-name="abreveacute" unicode="&#x1eaf;" horiz-adv-x="1072" 
d="M733 138q-41 -68 -116.5 -111.5t-184.5 -43.5q-154 0 -249 87t-95 232q0 142 96.5 225.5t274.5 83.5h271v118q0 175 -204 175q-189 0 -205 -158h-194q7 148 107.5 236.5t299.5 88.5q188 0 293 -84t105 -260v-727h-192v138h-7zM491 143q102 0 170.5 61.5t68.5 152.5v111
h-243q-97 0 -146 -42t-49 -114q0 -82 57.5 -125.5t141.5 -43.5zM821 1404q0 -97 -73.5 -166.5t-212.5 -69.5q-140 0 -215.5 69t-75.5 167h128q1 -53 44 -88t119 -35q77 0 121 34.5t44 88.5h121zM433 1412l249 242h180l-270 -242h-159z" />
    <glyph glyph-name="Abrevegrave" unicode="&#x1eb0;" 
d="M230 0h-209l476 1365h223l476 -1365h-221l-127 391h-490zM607 1141h-7l-193 -590h392zM894 1715q0 -97 -73 -166.5t-212 -69.5q-140 0 -216 69t-76 167h129q0 -53 43 -88t120 -35t120.5 35t44.5 88h120zM726 1723h-160l-273 242h183z" />
    <glyph glyph-name="abrevegrave" unicode="&#x1eb1;" horiz-adv-x="1072" 
d="M733 138q-41 -68 -116.5 -111.5t-184.5 -43.5q-154 0 -249 87t-95 232q0 142 96.5 225.5t274.5 83.5h271v118q0 175 -204 175q-189 0 -205 -158h-194q7 148 107.5 236.5t299.5 88.5q188 0 293 -84t105 -260v-727h-192v138h-7zM491 143q102 0 170.5 61.5t68.5 152.5v111
h-243q-97 0 -146 -42t-49 -114q0 -82 57.5 -125.5t141.5 -43.5zM820 1404q0 -97 -73 -166.5t-212 -69.5q-140 0 -216 69t-76 167h129q0 -53 43 -88t120 -35t120.5 35t44.5 88h120zM652 1412h-160l-273 242h183z" />
    <glyph glyph-name="Abrevehookabove" unicode="&#x1eb2;" 
d="M230 0h-209l476 1365h223l476 -1365h-221l-127 391h-490zM607 1141h-7l-193 -590h392zM894 1706q0 -95 -72.5 -161.5t-212.5 -66.5q-138 0 -214.5 66.5t-76.5 162.5h128q0 -50 43.5 -85t119.5 -35t120.5 34.5t44.5 84.5h120zM452 1967q40 10 93 10q91 0 145.5 -38
t54.5 -109q0 -50 -41.5 -94.5t-84.5 -56.5l-75 74q25 7 47.5 25.5t22.5 40.5q0 27 -28.5 41.5t-68.5 14.5q-36 0 -65 -7v99z" />
    <glyph glyph-name="abrevehookabove" unicode="&#x1eb3;" horiz-adv-x="1072" 
d="M733 138q-41 -68 -116.5 -111.5t-184.5 -43.5q-154 0 -249 87t-95 232q0 142 96.5 225.5t274.5 83.5h271v118q0 175 -204 175q-189 0 -205 -158h-194q7 148 107.5 236.5t299.5 88.5q188 0 293 -84t105 -260v-727h-192v138h-7zM491 143q102 0 170.5 61.5t68.5 152.5v111
h-243q-97 0 -146 -42t-49 -114q0 -82 57.5 -125.5t141.5 -43.5zM820 1395q0 -95 -72.5 -161.5t-212.5 -66.5q-138 0 -214.5 66.5t-76.5 162.5h128q0 -50 43.5 -85t119.5 -35t120.5 34.5t44.5 84.5h120zM378 1656q40 10 93 10q91 0 145.5 -38t54.5 -109q0 -50 -41.5 -94.5
t-84.5 -56.5l-75 74q25 7 47.5 25.5t22.5 40.5q0 27 -28.5 41.5t-68.5 14.5q-36 0 -65 -7v99z" />
    <glyph glyph-name="Abrevetilde" unicode="&#x1eb4;" 
d="M230 0h-209l476 1365h223l476 -1365h-221l-127 391h-490zM607 1141h-7l-193 -590h392zM895 1700q0 -93 -75 -159.5t-211 -66.5q-137 0 -214 66t-77 160h128q0 -51 44.5 -85t118.5 -34q75 0 120 34t45 85h121zM582 1827q-16 17 -23.5 24t-24 15.5t-33.5 8.5q-58 0 -65 -89
h-124q0 80 49 138.5t130 58.5q45 0 75.5 -14.5t65.5 -47.5l10.5 -10.5t11 -10.5t10 -8.5t11.5 -8t10.5 -5t13 -4.5t14.5 -1q31 0 47.5 30t19.5 67h122q0 -84 -49.5 -142t-128.5 -58q-52 0 -83 14t-59 43z" />
    <glyph glyph-name="abrevetilde" unicode="&#x1eb5;" horiz-adv-x="1072" 
d="M733 138q-41 -68 -116.5 -111.5t-184.5 -43.5q-154 0 -249 87t-95 232q0 142 96.5 225.5t274.5 83.5h271v118q0 175 -204 175q-189 0 -205 -158h-194q7 148 107.5 236.5t299.5 88.5q188 0 293 -84t105 -260v-727h-192v138h-7zM491 143q102 0 170.5 61.5t68.5 152.5v111
h-243q-97 0 -146 -42t-49 -114q0 -82 57.5 -125.5t141.5 -43.5zM821 1389q0 -93 -75 -159.5t-211 -66.5q-137 0 -214 66t-77 160h128q0 -51 44.5 -85t118.5 -34q75 0 120 34t45 85h121zM508 1516q-16 17 -23.5 24t-24 15.5t-33.5 8.5q-58 0 -65 -89h-124q0 80 49 138.5
t130 58.5q45 0 75.5 -14.5t65.5 -47.5l10.5 -10.5t11 -10.5t10 -8.5t11.5 -8t10.5 -5t13 -4.5t14.5 -1q31 0 47.5 30t19.5 67h122q0 -84 -49.5 -142t-128.5 -58q-52 0 -83 14t-59 43z" />
    <glyph glyph-name="Abrevedotbelow" unicode="&#x1eb6;" 
d="M230 0h-209l476 1365h223l476 -1365h-221l-127 391h-490zM607 1141h-7l-193 -590h392zM499 -271q0 49 32.5 82t79.5 33q50 0 83 -33t33 -82q0 -48 -33 -80t-83 -32q-47 0 -79.5 32t-32.5 80zM287 1756h132q0 -60 52 -101t138 -41t138 41t52 101h132q0 -52 -18.5 -98.5
t-56 -85t-101 -61t-146.5 -22.5t-146.5 22.5t-101 61t-56 85t-18.5 98.5z" />
    <glyph glyph-name="abrevedotbelow" unicode="&#x1eb7;" horiz-adv-x="1072" 
d="M733 138q-41 -68 -116.5 -111.5t-184.5 -43.5q-154 0 -249 87t-95 232q0 142 96.5 225.5t274.5 83.5h271v118q0 175 -204 175q-189 0 -205 -158h-194q7 148 107.5 236.5t299.5 88.5q188 0 293 -84t105 -260v-727h-192v138h-7zM491 143q102 0 170.5 61.5t68.5 152.5v111
h-243q-97 0 -146 -42t-49 -114q0 -82 57.5 -125.5t141.5 -43.5zM425 -271q0 49 32.5 82t79.5 33q50 0 83 -33t33 -82q0 -48 -33 -80t-83 -32q-47 0 -79.5 32t-32.5 80zM234 1446h132q0 -69 42 -116.5t124 -47.5t124 47.5t42 116.5h131q0 -52 -18 -101t-53 -90.5t-93.5 -67
t-132.5 -25.5t-133.5 25.5t-94 67t-52.5 90.5t-18 101z" />
    <glyph glyph-name="Edotbelow" unicode="&#x1eb8;" horiz-adv-x="1107" 
d="M461 -271q0 49 32.5 82t79.5 33q50 0 83 -33t33 -82q0 -48 -33 -80t-83 -32q-47 0 -79.5 32t-32.5 80zM996 177v-177h-838v1365h838v-177h-633v-408h597v-170h-597v-433h633z" />
    <glyph glyph-name="edotbelow" unicode="&#x1eb9;" horiz-adv-x="1075" 
d="M427 -271q0 49 32.5 82t79.5 33q50 0 83 -33t33 -82q0 -48 -33 -80t-83 -32q-47 0 -79.5 32t-32.5 80zM554 -18q-222 0 -340.5 134t-118.5 361v93q0 228 116.5 365t329.5 137q215 0 329.5 -136.5t114.5 -363.5v-92h-689v-30q0 -128 65.5 -214.5t191.5 -86.5
q97 0 150.5 42.5t67.5 105.5h201q-8 -56 -34.5 -108t-74 -100t-127.5 -77.5t-182 -29.5zM296 628h490v3q0 123 -66 200.5t-179 77.5t-179 -78t-66 -200v-3z" />
    <glyph glyph-name="Ehookabove" unicode="&#x1eba;" horiz-adv-x="1107" 
d="M996 177v-177h-838v1365h838v-177h-633v-408h597v-170h-597v-433h633zM438 1659v99q42 15 103 15q90 0 147 -40.5t57 -113.5q0 -108 -145 -164l-69 84q35 9 61.5 28t26.5 44q0 59 -90 59q-53 0 -91 -11z" />
    <glyph glyph-name="ehookabove" unicode="&#x1ebb;" horiz-adv-x="1075" 
d="M554 -18q-222 0 -340.5 134t-118.5 361v93q0 228 116.5 365t329.5 137q215 0 329.5 -136.5t114.5 -363.5v-92h-689v-30q0 -128 65.5 -214.5t191.5 -86.5q97 0 150.5 42.5t67.5 105.5h201q-8 -56 -34.5 -108t-74 -100t-127.5 -77.5t-182 -29.5zM296 628h490v3
q0 123 -66 200.5t-179 77.5t-179 -78t-66 -200v-3zM403 1437v110q43 18 111 18q102 0 161.5 -49.5t59.5 -136.5q0 -73 -42 -119.5t-120 -88.5l-68 90q54 30 76 55t22 55q0 37 -29 59.5t-74 22.5q-55 0 -97 -16z" />
    <glyph glyph-name="Etilde" unicode="&#x1ebc;" horiz-adv-x="1107" 
d="M996 177v-177h-838v1365h838v-177h-633v-408h597v-170h-597v-433h633zM547 1538l-9 9l-10.5 10.5t-9.5 8.5t-12 9t-11 6t-13 5t-13 1q-60 0 -64 -91h-116q0 82 43.5 140.5t126.5 58.5q43 0 75 -16t67 -50q5 -4 18 -17t19 -17.5t17.5 -9.5t23.5 -5q31 0 47 30.5t19 68.5
h116q0 -78 -47.5 -139t-123.5 -61q-51 0 -82 14.5t-61 44.5z" />
    <glyph glyph-name="etilde" unicode="&#x1ebd;" horiz-adv-x="1075" 
d="M554 -18q-222 0 -340.5 134t-118.5 361v93q0 228 116.5 365t329.5 137q215 0 329.5 -136.5t114.5 -363.5v-92h-689v-30q0 -128 65.5 -214.5t191.5 -86.5q97 0 150.5 42.5t67.5 105.5h201q-8 -56 -34.5 -108t-74 -100t-127.5 -77.5t-182 -29.5zM296 628h490v3
q0 123 -66 200.5t-179 77.5t-179 -78t-66 -200v-3zM504 1225q-18 19 -25 25.5t-24 16.5t-33 10q-61 0 -68 -101h-124q0 98 46.5 165t138.5 67q76 0 148 -74q4 -4 14.5 -15.5t15.5 -16t14 -11t18 -9t19 -2.5q33 0 49.5 34t19.5 76h124q0 -91 -51.5 -161.5t-134.5 -70.5
q-51 0 -84 17t-63 50z" />
    <glyph glyph-name="Ecircumflexacute" unicode="&#x1ebe;" horiz-adv-x="1107" 
d="M237 1517l274 237h120l276 -237h-176l-156 139h-8l-153 -139h-177zM773 1699l184 212h186l-255 -231zM996 177v-177h-838v1365h838v-177h-633v-408h597v-170h-597v-433h633z" />
    <glyph glyph-name="ecircumflexacute" unicode="&#x1ebf;" horiz-adv-x="1075" 
d="M203 1206l274 237h120l276 -237h-176l-156 139h-8l-153 -139h-177zM739 1388l184 212h186l-255 -231zM554 -18q-222 0 -340.5 134t-118.5 361v93q0 228 116.5 365t329.5 137q215 0 329.5 -136.5t114.5 -363.5v-92h-689v-30q0 -128 65.5 -214.5t191.5 -86.5
q97 0 150.5 42.5t67.5 105.5h201q-8 -56 -34.5 -108t-74 -100t-127.5 -77.5t-182 -29.5zM296 628h490v3q0 123 -66 200.5t-179 77.5t-179 -78t-66 -200v-3z" />
    <glyph glyph-name="Ecircumflexgrave" unicode="&#x1ec0;" horiz-adv-x="1107" 
d="M1034 1680h-136l-262 231h184zM907 1517h-176l-156 139h-8l-153 -139h-177l274 237h120zM996 177v-177h-838v1365h838v-177h-633v-408h597v-170h-597v-433h633z" />
    <glyph glyph-name="ecircumflexgrave" unicode="&#x1ec1;" horiz-adv-x="1075" 
d="M1000 1369h-136l-262 231h184zM873 1206h-176l-156 139h-8l-153 -139h-177l274 237h120zM554 -18q-222 0 -340.5 134t-118.5 361v93q0 228 116.5 365t329.5 137q215 0 329.5 -136.5t114.5 -363.5v-92h-689v-30q0 -128 65.5 -214.5t191.5 -86.5q97 0 150.5 42.5
t67.5 105.5h201q-8 -56 -34.5 -108t-74 -100t-127.5 -77.5t-182 -29.5zM296 628h490v3q0 123 -66 200.5t-179 77.5t-179 -78t-66 -200v-3z" />
    <glyph glyph-name="Ecircumflexhookabove" unicode="&#x1ec2;" horiz-adv-x="1107" 
d="M236 1509l274 221h120l276 -221h-176l-156 127h-8l-153 -127h-177zM710 1937q32 7 85 7q80 0 126.5 -35.5t46.5 -99.5q0 -90 -106 -150l-62 66q49 33 49 68q0 27 -22 42t-58 15q-34 0 -59 -4v91zM996 177v-177h-838v1365h838v-177h-633v-408h597v-170h-597v-433h633z" />
    <glyph glyph-name="ecircumflexhookabove" unicode="&#x1ec3;" horiz-adv-x="1075" 
d="M202 1198l274 221h120l276 -221h-176l-156 127h-8l-153 -127h-177zM676 1626q31 7 85 7q80 0 126.5 -35.5t46.5 -99.5q0 -90 -106 -150l-62 66q49 33 49 68q0 27 -22 42t-58 15q-34 0 -59 -4v91zM554 -18q-222 0 -340.5 134t-118.5 361v93q0 228 116.5 365t329.5 137
q215 0 329.5 -136.5t114.5 -363.5v-92h-689v-30q0 -128 65.5 -214.5t191.5 -86.5q97 0 150.5 42.5t67.5 105.5h201q-8 -56 -34.5 -108t-74 -100t-127.5 -77.5t-182 -29.5zM296 628h490v3q0 123 -66 200.5t-179 77.5t-179 -78t-66 -200v-3z" />
    <glyph glyph-name="Ecircumflextilde" unicode="&#x1ec4;" horiz-adv-x="1107" 
d="M996 177v-177h-838v1365h838v-177h-633v-408h597v-170h-597v-433h633zM240 1505l274 232h119l277 -232h-177l-155 138h-9l-153 -138h-176zM398 1801h-122q0 77 46.5 135t132.5 58q45 0 78 -15.5t71 -48.5q3 -3 11 -10t11.5 -10t10.5 -8.5t11.5 -8t11 -6t13.5 -4.5t14 -1
q32 0 48.5 30t20.5 69h121q0 -81 -49.5 -138.5t-129.5 -57.5q-54 0 -85.5 14.5t-63.5 43.5q-17 16 -25.5 23.5t-25.5 16t-34 8.5q-61 0 -66 -90z" />
    <glyph glyph-name="ecircumflextilde" unicode="&#x1ec5;" horiz-adv-x="1075" 
d="M554 -18q-222 0 -340.5 134t-118.5 361v93q0 228 116.5 365t329.5 137q215 0 329.5 -136.5t114.5 -363.5v-92h-689v-30q0 -128 65.5 -214.5t191.5 -86.5q97 0 150.5 42.5t67.5 105.5h201q-8 -56 -34.5 -108t-74 -100t-127.5 -77.5t-182 -29.5zM296 628h490v3
q0 123 -66 200.5t-179 77.5t-179 -78t-66 -200v-3zM206 1194l274 232h119l277 -232h-177l-155 138h-9l-153 -138h-176zM364 1490h-122q0 77 46.5 135t132.5 58q45 0 78 -15.5t71 -48.5q3 -3 11 -10t11.5 -10t10.5 -8.5t11.5 -8t11 -6t13.5 -4.5t14 -1q32 0 48.5 30t20.5 69
h121q0 -81 -49.5 -138.5t-129.5 -57.5q-54 0 -85.5 14.5t-63.5 43.5q-17 16 -25.5 23.5t-25.5 16t-34 8.5q-61 0 -66 -90z" />
    <glyph glyph-name="Ecircumflexdotbelow" unicode="&#x1ec6;" horiz-adv-x="1107" 
d="M461 -271q0 49 32.5 82t79.5 33q50 0 83 -33t33 -82q0 -48 -33 -80t-83 -32q-47 0 -79.5 32t-32.5 80zM239 1507l277 238h119l274 -238h-176l-155 140h-8l-155 -140h-176zM996 177v-177h-838v1365h838v-177h-633v-408h597v-170h-597v-433h633z" />
    <glyph glyph-name="ecircumflexdotbelow" unicode="&#x1ec7;" horiz-adv-x="1075" 
d="M257 1217l213 298h133l204 -300h-162l-108 187h-4l-116 -185h-160zM554 -18q-222 0 -340.5 134t-118.5 361v93q0 228 116.5 365t329.5 137q215 0 329.5 -136.5t114.5 -363.5v-92h-689v-30q0 -128 65.5 -214.5t191.5 -86.5q97 0 150.5 42.5t67.5 105.5h201
q-8 -56 -34.5 -108t-74 -100t-127.5 -77.5t-182 -29.5zM296 628h490v3q0 123 -66 200.5t-179 77.5t-179 -78t-66 -200v-3zM427 -271q0 49 32.5 82t79.5 33q50 0 83 -33t33 -82q0 -48 -33 -80t-83 -32q-47 0 -79.5 32t-32.5 80z" />
    <glyph glyph-name="Ihookabove" unicode="&#x1ec8;" horiz-adv-x="521" 
d="M364 0h-206v1365h206v-1365zM127 1659v99q42 15 103 15q90 0 147 -40.5t57 -113.5q0 -108 -145 -164l-69 84q35 9 61.5 28t26.5 44q0 59 -90 59q-52 0 -91 -11z" />
    <glyph glyph-name="ihookabove" unicode="&#x1ec9;" horiz-adv-x="540" 
d="M170 0v1054h205v-1054h-205zM137 1437v110q43 18 111 18q102 0 161.5 -49.5t59.5 -136.5q0 -73 -42 -119.5t-120 -88.5l-68 90q54 30 76 55t22 55q0 37 -29 59.5t-74 22.5q-55 0 -97 -16z" />
    <glyph glyph-name="Idotbelow" unicode="&#x1eca;" horiz-adv-x="521" 
d="M364 0h-206v1365h206v-1365zM150 -271q0 49 32.5 82t79.5 33q50 0 83 -33t33 -82q0 -48 -33 -80t-83 -32q-47 0 -79.5 32t-32.5 80z" />
    <glyph glyph-name="idotbelow" unicode="&#x1ecb;" horiz-adv-x="541" 
d="M170 0v1054h201v-1054h-201zM145 1312q0 50 35.5 83t88.5 33q56 0 91.5 -32.5t35.5 -83.5t-35.5 -84t-91.5 -33q-53 0 -88.5 33.5t-35.5 83.5zM160 -271q0 49 32.5 82t79.5 33q50 0 83 -33t33 -82q0 -48 -33 -80t-83 -32q-47 0 -79.5 32t-32.5 80z" />
    <glyph glyph-name="Odotbelow" unicode="&#x1ecc;" horiz-adv-x="1324" 
d="M551 -271q0 49 32.5 82t79.5 33q50 0 83 -33t33 -82q0 -48 -33 -80t-83 -32q-47 0 -79.5 32t-32.5 80zM310 774v-194q0 -211 97 -319.5t254 -108.5q158 0 255 108.5t97 319.5v194q0 211 -97.5 325.5t-254.5 114.5q-156 0 -253.5 -114.5t-97.5 -325.5zM103 580v192
q0 289 151 455t409 166t408 -165.5t150 -455.5v-192q0 -287 -151 -447.5t-410 -160.5t-408 160.5t-149 447.5z" />
    <glyph glyph-name="odotbelow" unicode="&#x1ecd;" horiz-adv-x="1115" 
d="M447 -271q0 49 32.5 82t79.5 33q50 0 83 -33t33 -82q0 -48 -33 -80t-83 -32q-47 0 -79.5 32t-32.5 80zM558 1072q227 0 344.5 -136.5t117.5 -366.5v-81q0 -234 -117 -370t-345 -136q-229 0 -346 135.5t-117 370.5v80q0 225 118.5 364.5t344.5 139.5zM558 906
q-58 0 -103.5 -19t-74.5 -51t-48 -77.5t-27 -95t-8 -107.5v-57q0 -58 8 -108t26.5 -95t48 -77t75 -50.5t103.5 -18.5q72 0 124 27.5t80.5 78t41 110t12.5 133.5v57q0 58 -7.5 107.5t-26 95t-47.5 77.5t-74 51t-103 19z" />
    <glyph glyph-name="Ohookabove" unicode="&#x1ece;" horiz-adv-x="1324" 
d="M528 1659v99q43 15 103 15q90 0 147 -40.5t57 -113.5q0 -108 -145 -164l-69 84q35 9 61.5 28t26.5 44q0 59 -90 59q-53 0 -91 -11zM310 774v-194q0 -211 97 -319.5t254 -108.5q158 0 255 108.5t97 319.5v194q0 211 -97.5 325.5t-254.5 114.5q-156 0 -253.5 -114.5
t-97.5 -325.5zM103 580v192q0 289 151 455t409 166t408 -165.5t150 -455.5v-192q0 -287 -151 -447.5t-410 -160.5t-408 160.5t-149 447.5z" />
    <glyph glyph-name="ohookabove" unicode="&#x1ecf;" horiz-adv-x="1115" 
d="M558 1072q227 0 344.5 -136.5t117.5 -366.5v-81q0 -234 -117 -370t-345 -136q-229 0 -346 135.5t-117 370.5v80q0 225 118.5 364.5t344.5 139.5zM558 906q-58 0 -103.5 -19t-74.5 -51t-48 -77.5t-27 -95t-8 -107.5v-57q0 -58 8 -108t26.5 -95t48 -77t75 -50.5
t103.5 -18.5q72 0 124 27.5t80.5 78t41 110t12.5 133.5v57q0 58 -7.5 107.5t-26 95t-47.5 77.5t-74 51t-103 19zM423 1437v110q43 18 111 18q102 0 161.5 -49.5t59.5 -136.5q0 -73 -42 -119.5t-120 -88.5l-68 90q54 30 76 55t22 55q0 37 -29 59.5t-74 22.5q-55 0 -97 -16z
" />
    <glyph glyph-name="Ocircumflexacute" unicode="&#x1ed0;" horiz-adv-x="1324" 
d="M327 1517l274 237h120l276 -237h-176l-156 139h-8l-153 -139h-177zM863 1699l184 212h186l-255 -231zM310 774v-194q0 -211 97 -319.5t254 -108.5q158 0 255 108.5t97 319.5v194q0 211 -97.5 325.5t-254.5 114.5q-156 0 -253.5 -114.5t-97.5 -325.5zM103 580v192
q0 289 151 455t409 166t408 -165.5t150 -455.5v-192q0 -287 -151 -447.5t-410 -160.5t-408 160.5t-149 447.5z" />
    <glyph glyph-name="ocircumflexacute" unicode="&#x1ed1;" horiz-adv-x="1115" 
d="M223 1206l274 237h120l276 -237h-176l-156 139h-8l-153 -139h-177zM759 1388l184 212h186l-255 -231zM558 1072q227 0 344.5 -136.5t117.5 -366.5v-81q0 -234 -117 -370t-345 -136q-229 0 -346 135.5t-117 370.5v80q0 225 118.5 364.5t344.5 139.5zM558 906
q-58 0 -103.5 -19t-74.5 -51t-48 -77.5t-27 -95t-8 -107.5v-57q0 -58 8 -108t26.5 -95t48 -77t75 -50.5t103.5 -18.5q72 0 124 27.5t80.5 78t41 110t12.5 133.5v57q0 58 -7.5 107.5t-26 95t-47.5 77.5t-74 51t-103 19z" />
    <glyph glyph-name="Ocircumflexgrave" unicode="&#x1ed2;" horiz-adv-x="1324" 
d="M1124 1680h-136l-262 231h184zM997 1517h-176l-156 139h-8l-153 -139h-177l274 237h120zM310 774v-194q0 -211 97 -319.5t254 -108.5q158 0 255 108.5t97 319.5v194q0 211 -97.5 325.5t-254.5 114.5q-156 0 -253.5 -114.5t-97.5 -325.5zM103 580v192q0 289 151 455
t409 166t408 -165.5t150 -455.5v-192q0 -287 -151 -447.5t-410 -160.5t-408 160.5t-149 447.5z" />
    <glyph glyph-name="ocircumflexgrave" unicode="&#x1ed3;" horiz-adv-x="1115" 
d="M1020 1369h-136l-262 231h184zM893 1206h-176l-156 139h-8l-153 -139h-177l274 237h120zM558 1072q227 0 344.5 -136.5t117.5 -366.5v-81q0 -234 -117 -370t-345 -136q-229 0 -346 135.5t-117 370.5v80q0 225 118.5 364.5t344.5 139.5zM558 906q-58 0 -103.5 -19
t-74.5 -51t-48 -77.5t-27 -95t-8 -107.5v-57q0 -58 8 -108t26.5 -95t48 -77t75 -50.5t103.5 -18.5q72 0 124 27.5t80.5 78t41 110t12.5 133.5v57q0 58 -7.5 107.5t-26 95t-47.5 77.5t-74 51t-103 19z" />
    <glyph glyph-name="Ocircumflexhookabove" unicode="&#x1ed4;" horiz-adv-x="1324" 
d="M326 1509l274 221h120l276 -221h-176l-156 127h-8l-153 -127h-177zM800 1937q32 7 85 7q80 0 126.5 -35.5t46.5 -99.5q0 -90 -106 -150l-62 66q49 33 49 68q0 27 -22 42t-58 15q-34 0 -59 -4v91zM310 774v-194q0 -211 97 -319.5t254 -108.5q158 0 255 108.5t97 319.5v194
q0 211 -97.5 325.5t-254.5 114.5q-156 0 -253.5 -114.5t-97.5 -325.5zM103 580v192q0 289 151 455t409 166t408 -165.5t150 -455.5v-192q0 -287 -151 -447.5t-410 -160.5t-408 160.5t-149 447.5z" />
    <glyph glyph-name="ocircumflexhookabove" unicode="&#x1ed5;" horiz-adv-x="1115" 
d="M222 1198l274 221h120l276 -221h-176l-156 127h-8l-153 -127h-177zM696 1626q32 7 85 7q80 0 126.5 -35.5t46.5 -99.5q0 -90 -106 -150l-62 66q49 33 49 68q0 27 -22 42t-58 15q-34 0 -59 -4v91zM558 1072q227 0 344.5 -136.5t117.5 -366.5v-81q0 -234 -117 -370
t-345 -136q-229 0 -346 135.5t-117 370.5v80q0 225 118.5 364.5t344.5 139.5zM558 906q-58 0 -103.5 -19t-74.5 -51t-48 -77.5t-27 -95t-8 -107.5v-57q0 -58 8 -108t26.5 -95t48 -77t75 -50.5t103.5 -18.5q72 0 124 27.5t80.5 78t41 110t12.5 133.5v57q0 58 -7.5 107.5
t-26 95t-47.5 77.5t-74 51t-103 19z" />
    <glyph glyph-name="Ocircumflextilde" unicode="&#x1ed6;" horiz-adv-x="1324" 
d="M330 1505l274 232h119l277 -232h-177l-155 138h-9l-153 -138h-176zM488 1801h-122q0 77 46.5 135t132.5 58q45 0 78 -15.5t71 -48.5q3 -3 11 -10t11.5 -10t10.5 -8.5t11.5 -8t11 -6t13.5 -4.5t14 -1q32 0 48.5 30t20.5 69h121q0 -81 -49.5 -138.5t-129.5 -57.5
q-54 0 -85.5 14.5t-63.5 43.5q-17 16 -25.5 23.5t-25.5 16t-34 8.5q-61 0 -66 -90zM310 774v-194q0 -211 97 -319.5t254 -108.5q158 0 255 108.5t97 319.5v194q0 211 -97.5 325.5t-254.5 114.5q-156 0 -253.5 -114.5t-97.5 -325.5zM103 580v192q0 289 151 455t409 166
t408 -165.5t150 -455.5v-192q0 -287 -151 -447.5t-410 -160.5t-408 160.5t-149 447.5z" />
    <glyph glyph-name="ocircumflextilde" unicode="&#x1ed7;" horiz-adv-x="1115" 
d="M226 1194l274 232h119l277 -232h-177l-155 138h-9l-153 -138h-176zM384 1490h-122q0 77 46.5 135t132.5 58q45 0 78 -15.5t71 -48.5q3 -3 11 -10t11.5 -10t10.5 -8.5t11.5 -8t11 -6t13.5 -4.5t14 -1q32 0 48.5 30t20.5 69h121q0 -81 -49.5 -138.5t-129.5 -57.5
q-54 0 -85.5 14.5t-63.5 43.5q-17 16 -25.5 23.5t-25.5 16t-34 8.5q-61 0 -66 -90zM558 1072q227 0 344.5 -136.5t117.5 -366.5v-81q0 -234 -117 -370t-345 -136q-229 0 -346 135.5t-117 370.5v80q0 225 118.5 364.5t344.5 139.5zM558 906q-58 0 -103.5 -19t-74.5 -51
t-48 -77.5t-27 -95t-8 -107.5v-57q0 -58 8 -108t26.5 -95t48 -77t75 -50.5t103.5 -18.5q72 0 124 27.5t80.5 78t41 110t12.5 133.5v57q0 58 -7.5 107.5t-26 95t-47.5 77.5t-74 51t-103 19z" />
    <glyph glyph-name="Ocircumflexdotbelow" unicode="&#x1ed8;" horiz-adv-x="1324" 
d="M551 -271q0 49 32.5 82t79.5 33q50 0 83 -33t33 -82q0 -48 -33 -80t-83 -32q-47 0 -79.5 32t-32.5 80zM329 1507l277 238h119l274 -238h-176l-155 140h-8l-155 -140h-176zM310 774v-194q0 -211 97 -319.5t254 -108.5q158 0 255 108.5t97 319.5v194q0 211 -97.5 325.5
t-254.5 114.5q-156 0 -253.5 -114.5t-97.5 -325.5zM103 580v192q0 289 151 455t409 166t408 -165.5t150 -455.5v-192q0 -287 -151 -447.5t-410 -160.5t-408 160.5t-149 447.5z" />
    <glyph glyph-name="ocircumflexdotbelow" unicode="&#x1ed9;" horiz-adv-x="1115" 
d="M277 1217l213 298h133l204 -300h-162l-108 187h-4l-116 -185h-160zM558 1072q227 0 344.5 -136.5t117.5 -366.5v-81q0 -234 -117 -370t-345 -136q-229 0 -346 135.5t-117 370.5v80q0 225 118.5 364.5t344.5 139.5zM558 906q-58 0 -103.5 -19t-74.5 -51t-48 -77.5t-27 -95
t-8 -107.5v-57q0 -58 8 -108t26.5 -95t48 -77t75 -50.5t103.5 -18.5q72 0 124 27.5t80.5 78t41 110t12.5 133.5v57q0 58 -7.5 107.5t-26 95t-47.5 77.5t-74 51t-103 19zM447 -271q0 49 32.5 82t79.5 33q50 0 83 -33t33 -82q0 -48 -33 -80t-83 -32q-47 0 -79.5 32t-32.5 80z
" />
    <glyph glyph-name="Ohornacute" unicode="&#x1eda;" horiz-adv-x="1335" 
d="M545 1510l255 206h219l-296 -206h-178zM1221 580q0 -287 -151 -447.5t-410 -160.5t-408 160.5t-149 447.5v192q0 289 151 455t409 166q65 0 127.5 -13.5t102 -30t87.5 -30t88 -13.5q77 0 106.5 39.5t29.5 113.5v99h172v-109q0 -135 -67 -208t-191 -73l-3 -6
q43 -63 74.5 -170t31.5 -220v-192zM310 774v-195q0 -211 97 -319.5t254 -108.5q158 0 255 108.5t97 319.5v195q0 211 -97.5 325.5t-254.5 114.5q-156 0 -253.5 -114.5t-97.5 -325.5z" />
    <glyph glyph-name="ohornacute" unicode="&#x1edb;" horiz-adv-x="1124" 
d="M611 1215h-163l190 279h208zM558 -18q-209 0 -336 124.5t-127 348.5v146q0 213 129.5 342t333.5 129q61 0 141 -21t134 -21q71 0 99.5 36.5t28.5 110.5v156h172v-157q0 -262 -206 -276v-8q38 -52 65.5 -130t27.5 -160v-146q0 -222 -128 -348t-334 -126zM558 906
q-120 0 -190.5 -88t-70.5 -229v-123q0 -143 68.5 -229.5t192.5 -86.5t191 86.5t67 229.5v123q0 141 -69 229t-189 88z" />
    <glyph glyph-name="Ohorngrave" unicode="&#x1edc;" horiz-adv-x="1335" 
d="M777 1510h-175l-292 203h215zM1221 580q0 -287 -151 -447.5t-410 -160.5t-408 160.5t-149 447.5v192q0 289 151 455t409 166q65 0 127.5 -13.5t102 -30t87.5 -30t88 -13.5q77 0 106.5 39.5t29.5 113.5v99h172v-109q0 -135 -67 -208t-191 -73l-3 -6q43 -63 74.5 -170
t31.5 -220v-192zM310 774v-195q0 -211 97 -319.5t254 -108.5q158 0 255 108.5t97 319.5v195q0 211 -97.5 325.5t-254.5 114.5q-156 0 -253.5 -114.5t-97.5 -325.5z" />
    <glyph glyph-name="ohorngrave" unicode="&#x1edd;" horiz-adv-x="1124" 
d="M665 1217h-164l-237 277h208zM558 -18q-209 0 -336 124.5t-127 348.5v146q0 213 129.5 342t333.5 129q61 0 141 -21t134 -21q71 0 99.5 36.5t28.5 110.5v156h172v-157q0 -262 -206 -276v-8q38 -52 65.5 -130t27.5 -160v-146q0 -222 -128 -348t-334 -126zM558 906
q-120 0 -190.5 -88t-70.5 -229v-123q0 -143 68.5 -229.5t192.5 -86.5t191 86.5t67 229.5v123q0 141 -69 229t-189 88z" />
    <glyph glyph-name="Ohornhookabove" unicode="&#x1ede;" horiz-adv-x="1335" 
d="M528 1659v99q43 15 103 15q90 0 147 -40.5t57 -113.5q0 -108 -145 -164l-69 84q35 9 61.5 28t26.5 44q0 59 -90 59q-53 0 -91 -11zM1221 580q0 -287 -151 -447.5t-410 -160.5t-408 160.5t-149 447.5v192q0 289 151 455t409 166q65 0 127.5 -13.5t102 -30t87.5 -30
t88 -13.5q77 0 106.5 39.5t29.5 113.5v99h172v-109q0 -135 -67 -208t-191 -73l-3 -6q43 -63 74.5 -170t31.5 -220v-192zM310 774v-195q0 -211 97 -319.5t254 -108.5q158 0 255 108.5t97 319.5v195q0 211 -97.5 325.5t-254.5 114.5q-156 0 -253.5 -114.5t-97.5 -325.5z" />
    <glyph glyph-name="ohornhookabove" unicode="&#x1edf;" horiz-adv-x="1124" 
d="M558 -18q-209 0 -336 124.5t-127 348.5v146q0 213 129.5 342t333.5 129q61 0 141 -21t134 -21q71 0 99.5 36.5t28.5 110.5v156h172v-157q0 -262 -206 -276v-8q38 -52 65.5 -130t27.5 -160v-146q0 -222 -128 -348t-334 -126zM558 906q-120 0 -190.5 -88t-70.5 -229v-123
q0 -143 68.5 -229.5t192.5 -86.5t191 86.5t67 229.5v123q0 141 -69 229t-189 88zM423 1437v110q43 18 111 18q102 0 161.5 -49.5t59.5 -136.5q0 -73 -42 -119.5t-120 -88.5l-68 90q54 30 76 55t22 55q0 37 -29 59.5t-74 22.5q-55 0 -97 -16z" />
    <glyph glyph-name="Ohorntilde" unicode="&#x1ee0;" horiz-adv-x="1335" 
d="M1221 580q0 -287 -151 -447.5t-410 -160.5t-408 160.5t-149 447.5v192q0 289 151 455t409 166q65 0 127.5 -13.5t102 -30t87.5 -30t88 -13.5q77 0 106.5 39.5t29.5 113.5v99h172v-109q0 -135 -67 -208t-191 -73l-3 -6q43 -63 74.5 -170t31.5 -220v-192zM310 774v-195
q0 -211 97 -319.5t254 -108.5q158 0 255 108.5t97 319.5v195q0 211 -97.5 325.5t-254.5 114.5q-156 0 -253.5 -114.5t-97.5 -325.5zM637 1538l-9 9l-10.5 10.5t-9.5 8.5t-12 9t-11 6t-13 5t-13 1q-60 0 -64 -91h-116q0 82 43.5 140.5t126.5 58.5q43 0 75 -16t67 -50
q5 -4 18 -17t19 -17.5t17.5 -9.5t23.5 -5q31 0 47 30.5t19 68.5h116q0 -78 -47.5 -139t-123.5 -61q-51 0 -82 14.5t-61 44.5z" />
    <glyph glyph-name="ohorntilde" unicode="&#x1ee1;" horiz-adv-x="1124" 
d="M524 1225q-18 19 -25 25.5t-24 16.5t-33 10q-61 0 -68 -101h-124q0 98 46.5 165t138.5 67q76 0 148 -74q4 -4 14.5 -15.5t15.5 -16t14 -11t18 -9t19 -2.5q33 0 49.5 34t19.5 76h124q0 -91 -51.5 -161.5t-134.5 -70.5q-51 0 -84 17t-63 50zM558 -18q-209 0 -336 124.5
t-127 348.5v146q0 213 129.5 342t333.5 129q61 0 141 -21t134 -21q71 0 99.5 36.5t28.5 110.5v156h172v-157q0 -262 -206 -276v-8q38 -52 65.5 -130t27.5 -160v-146q0 -222 -128 -348t-334 -126zM558 906q-120 0 -190.5 -88t-70.5 -229v-123q0 -143 68.5 -229.5t192.5 -86.5
t191 86.5t67 229.5v123q0 141 -69 229t-189 88z" />
    <glyph glyph-name="Ohorndotbelow" unicode="&#x1ee2;" horiz-adv-x="1335" 
d="M551 -271q0 49 32.5 82t79.5 33q50 0 83 -33t33 -82q0 -48 -33 -80t-83 -32q-47 0 -79.5 32t-32.5 80zM1221 580q0 -287 -151 -447.5t-410 -160.5t-408 160.5t-149 447.5v192q0 289 151 455t409 166q65 0 127.5 -13.5t102 -30t87.5 -30t88 -13.5q77 0 106.5 39.5
t29.5 113.5v99h172v-109q0 -135 -67 -208t-191 -73l-3 -6q43 -63 74.5 -170t31.5 -220v-192zM310 774v-195q0 -211 97 -319.5t254 -108.5q158 0 255 108.5t97 319.5v195q0 211 -97.5 325.5t-254.5 114.5q-156 0 -253.5 -114.5t-97.5 -325.5z" />
    <glyph glyph-name="ohorndotbelow" unicode="&#x1ee3;" horiz-adv-x="1124" 
d="M447 -271q0 49 32.5 82t79.5 33q50 0 83 -33t33 -82q0 -48 -33 -80t-83 -32q-47 0 -79.5 32t-32.5 80zM558 -18q-209 0 -336 124.5t-127 348.5v146q0 213 129.5 342t333.5 129q61 0 141 -21t134 -21q71 0 99.5 36.5t28.5 110.5v156h172v-157q0 -262 -206 -276v-8
q38 -52 65.5 -130t27.5 -160v-146q0 -222 -128 -348t-334 -126zM558 906q-120 0 -190.5 -88t-70.5 -229v-123q0 -143 68.5 -229.5t192.5 -86.5t191 86.5t67 229.5v123q0 141 -69 229t-189 88z" />
    <glyph glyph-name="Udotbelow" unicode="&#x1ee4;" horiz-adv-x="1341" 
d="M560 -271q0 49 32.5 82t79.5 33q50 0 83 -33t33 -82q0 -48 -33 -80t-83 -32q-47 0 -79.5 32t-32.5 80zM348 1365v-881q0 -153 87 -242t235 -89t236 89.5t88 241.5v881h205v-891q0 -226 -145.5 -364t-383.5 -138q-237 0 -382.5 139t-145.5 366v888h206z" />
    <glyph glyph-name="udotbelow" unicode="&#x1ee5;" horiz-adv-x="1166" 
d="M472 -271q0 49 32.5 82t79.5 33q50 0 83 -33t33 -82q0 -48 -33 -80t-83 -32q-47 0 -79.5 32t-32.5 80zM1020 1054v-1054h-199v143h-9q-30 -69 -107.5 -114.5t-196.5 -45.5q-168 0 -269 95.5t-101 273.5v702h203v-646q0 -133 64.5 -190t170.5 -57q108 0 174.5 66t66.5 184
v643h203z" />
    <glyph glyph-name="Uhookabove" unicode="&#x1ee6;" horiz-adv-x="1341" 
d="M348 1365v-881q0 -153 87 -242t235 -89t236 89.5t88 241.5v881h205v-891q0 -226 -145.5 -364t-383.5 -138q-237 0 -382.5 139t-145.5 366v888h206zM537 1659v99q42 15 103 15q90 0 147 -40.5t57 -113.5q0 -108 -145 -164l-69 84q35 9 61.5 28t26.5 44q0 59 -90 59
q-52 0 -91 -11z" />
    <glyph glyph-name="uhookabove" unicode="&#x1ee7;" horiz-adv-x="1166" 
d="M1020 1054v-1054h-199v143h-9q-30 -69 -107.5 -114.5t-196.5 -45.5q-168 0 -269 95.5t-101 273.5v702h203v-646q0 -133 64.5 -190t170.5 -57q108 0 174.5 66t66.5 184v643h203zM448 1437v110q43 18 111 18q102 0 161.5 -49.5t59.5 -136.5q0 -73 -42 -119.5t-120 -88.5
l-68 90q54 30 76 55t22 55q0 37 -29 59.5t-74 22.5q-55 0 -97 -16z" />
    <glyph glyph-name="Uhornacute" unicode="&#x1ee8;" horiz-adv-x="1411" 
d="M554 1510l255 206h219l-296 -206h-178zM670 -27q-237 0 -382.5 139t-145.5 365v888h206v-880q0 -153 87 -242.5t235 -89.5t236 89.5t88 242.5v880h207q71 0 99 37.5t28 109.5v107h170v-117q0 -126 -63.5 -203.5t-188.5 -77.5h-47v-747q0 -226 -145.5 -363.5
t-383.5 -137.5z" />
    <glyph glyph-name="uhornacute" unicode="&#x1ee9;" horiz-adv-x="1265" 
d="M636 1215h-163l190 279h208zM809 175q-12 -34 -36 -66t-61 -61.5t-93 -47t-122 -17.5q-167 0 -263 83.5t-96 260.5v727h203v-676q0 -120 60.5 -172t158.5 -52q108 0 182.5 70t74.5 171v659h182q70 0 97 37.5t27 109.5v132h171v-142q0 -125 -63 -202t-190 -77h-21v-912
h-200v175h-11z" />
    <glyph glyph-name="Uhorngrave" unicode="&#x1eea;" horiz-adv-x="1411" 
d="M786 1510h-175l-292 203h215zM670 -27q-237 0 -382.5 139t-145.5 365v888h206v-880q0 -153 87 -242.5t235 -89.5t236 89.5t88 242.5v880h207q71 0 99 37.5t28 109.5v107h170v-117q0 -126 -63.5 -203.5t-188.5 -77.5h-47v-747q0 -226 -145.5 -363.5t-383.5 -137.5z" />
    <glyph glyph-name="uhorngrave" unicode="&#x1eeb;" horiz-adv-x="1265" 
d="M690 1217h-164l-237 277h208zM809 175q-12 -34 -36 -66t-61 -61.5t-93 -47t-122 -17.5q-167 0 -263 83.5t-96 260.5v727h203v-676q0 -120 60.5 -172t158.5 -52q108 0 182.5 70t74.5 171v659h182q70 0 97 37.5t27 109.5v132h171v-142q0 -125 -63 -202t-190 -77h-21v-912
h-200v175h-11z" />
    <glyph glyph-name="Uhornhookabove" unicode="&#x1eec;" horiz-adv-x="1411" 
d="M537 1659v99q42 15 103 15q90 0 147 -40.5t57 -113.5q0 -108 -145 -164l-69 84q35 9 61.5 28t26.5 44q0 59 -90 59q-52 0 -91 -11zM670 -27q-237 0 -382.5 139t-145.5 365v888h206v-880q0 -153 87 -242.5t235 -89.5t236 89.5t88 242.5v880h207q71 0 99 37.5t28 109.5v107
h170v-117q0 -126 -63.5 -203.5t-188.5 -77.5h-47v-747q0 -226 -145.5 -363.5t-383.5 -137.5z" />
    <glyph glyph-name="uhornhookabove" unicode="&#x1eed;" horiz-adv-x="1265" 
d="M448 1437v110q43 18 111 18q102 0 161.5 -49.5t59.5 -136.5q0 -73 -42 -119.5t-120 -88.5l-68 90q54 30 76 55t22 55q0 37 -29 59.5t-74 22.5q-55 0 -97 -16zM809 175q-12 -34 -36 -66t-61 -61.5t-93 -47t-122 -17.5q-167 0 -263 83.5t-96 260.5v727h203v-676
q0 -120 60.5 -172t158.5 -52q108 0 182.5 70t74.5 171v659h182q70 0 97 37.5t27 109.5v132h171v-142q0 -125 -63 -202t-190 -77h-21v-912h-200v175h-11z" />
    <glyph glyph-name="Uhorntilde" unicode="&#x1eee;" horiz-adv-x="1411" 
d="M646 1538l-9 9l-10.5 10.5t-9.5 8.5t-12 9t-11 6t-13 5t-13 1q-60 0 -64 -91h-116q0 82 43.5 140.5t126.5 58.5q43 0 75 -16t67 -50q5 -4 18 -17t19 -17.5t17.5 -9.5t23.5 -5q31 0 47 30.5t19 68.5h116q0 -78 -47.5 -139t-123.5 -61q-51 0 -82 14.5t-61 44.5zM670 -27
q-237 0 -382.5 139t-145.5 365v888h206v-880q0 -153 87 -242.5t235 -89.5t236 89.5t88 242.5v880h207q71 0 99 37.5t28 109.5v107h170v-117q0 -126 -63.5 -203.5t-188.5 -77.5h-47v-747q0 -226 -145.5 -363.5t-383.5 -137.5z" />
    <glyph glyph-name="uhorntilde" unicode="&#x1eef;" horiz-adv-x="1265" 
d="M549 1225q-18 19 -25 25.5t-24 16.5t-33 10q-61 0 -68 -101h-124q0 98 46.5 165t138.5 67q76 0 148 -74q4 -4 14.5 -15.5t15.5 -16t14 -11t18 -9t19 -2.5q33 0 49.5 34t19.5 76h124q0 -91 -51.5 -161.5t-134.5 -70.5q-51 0 -84 17t-63 50zM809 175q-12 -34 -36 -66
t-61 -61.5t-93 -47t-122 -17.5q-167 0 -263 83.5t-96 260.5v727h203v-676q0 -120 60.5 -172t158.5 -52q108 0 182.5 70t74.5 171v659h182q70 0 97 37.5t27 109.5v132h171v-142q0 -125 -63 -202t-190 -77h-21v-912h-200v175h-11z" />
    <glyph glyph-name="Uhorndotbelow" unicode="&#x1ef0;" horiz-adv-x="1411" 
d="M560 -271q0 49 32.5 82t79.5 33q50 0 83 -33t33 -82q0 -48 -33 -80t-83 -32q-47 0 -79.5 32t-32.5 80zM670 -27q-237 0 -382.5 139t-145.5 365v888h206v-880q0 -153 87 -242.5t235 -89.5t236 89.5t88 242.5v880h207q71 0 99 37.5t28 109.5v107h170v-117
q0 -126 -63.5 -203.5t-188.5 -77.5h-47v-747q0 -226 -145.5 -363.5t-383.5 -137.5z" />
    <glyph glyph-name="uhorndotbelow" unicode="&#x1ef1;" horiz-adv-x="1265" 
d="M472 -271q0 49 32.5 82t79.5 33q50 0 83 -33t33 -82q0 -48 -33 -80t-83 -32q-47 0 -79.5 32t-32.5 80zM809 175q-12 -34 -36 -66t-61 -61.5t-93 -47t-122 -17.5q-167 0 -263 83.5t-96 260.5v727h203v-676q0 -120 60.5 -172t158.5 -52q108 0 182.5 70t74.5 171v659h182
q70 0 97 37.5t27 109.5v132h171v-142q0 -125 -63 -202t-190 -77h-21v-912h-200v175h-11z" />
    <glyph glyph-name="u20AB" unicode="&#x20ab;" horiz-adv-x="1114" 
d="M916 -302h-730v144h730v-144zM526 901q-116 0 -183.5 -82.5t-67.5 -229.5v-123q0 -149 68.5 -231t187.5 -82t189.5 80t70.5 218v171q0 123 -74.5 201t-190.5 78zM787 168q-21 -74 -105 -128.5t-210 -54.5q-182 0 -292 120.5t-110 325.5v193q0 203 110.5 325t296.5 122
q119 0 197 -49.5t107 -123.5h10v270h-253v144h253v166h202v-166h127v-144h-127v-1168h-196v168h-10z" />
    </font>
</defs>
</svg>
